<svg xmlns="http://www.w3.org/2000/svg" xmlns:xlink="http://www.w3.org/1999/xlink" width="1024" zoomAndPan="magnify" viewBox="0 0 768 767.999994" height="1024" preserveAspectRatio="xMidYMid meet" version="1.0"><defs><g/><clipPath id="f69db1cf47"><path d="M 254 320 L 468 320 L 468 725.753906 L 254 725.753906 Z M 254 320 " clip-rule="nonzero"/></clipPath><clipPath id="069151f336"><rect x="0" width="768" y="0" height="726"/></clipPath></defs><g transform="matrix(1, 0, 0, 1, 0, -0.000000000000057351)"><g clip-path="url(#069151f336)"><path fill="#6cc9ff" d="M 138.386719 2.015625 L 230.007812 272.84375 C 230.007812 272.84375 262.09375 250.648438 262.09375 250.648438 C 271.140625 246.882812 217.390625 115.238281 222.113281 110.757812 C 224.726562 109.605469 469.804688 297.371094 472.304688 290.136719 C 475.382812 280.78125 484.273438 262.378906 484.316406 252.980469 C 478.992188 250.816406 144.679688 1.550781 138.371094 2.015625 Z M 138.386719 2.015625 " fill-opacity="1" fill-rule="nonzero"/><path fill="#6cc9ff" d="M 399.269531 169.324219 L 432.71875 194.960938 L 548.164062 110.113281 L 550.046875 110.746094 L 450.683594 408.828125 L 453.226562 407.746094 L 492.210938 407.703125 L 630.652344 0.0742188 Z M 399.269531 169.324219 " fill-opacity="1" fill-rule="nonzero"/><path fill="#6cc9ff" d="M 124.914062 421.289062 L 367.226562 241.882812 C 368.335938 241.066406 369.445312 237.484375 368.238281 236.628906 L 340.210938 216.695312 C 229.949219 286.933594 113.058594 382.699219 0 461.886719 C 57.652344 463.09375 217.660156 464.132812 277.445312 464.5 L 264.394531 423.632812 L 125.082031 423.59375 L 124.898438 421.300781 Z M 124.914062 421.289062 " fill-opacity="1" fill-rule="nonzero"/><path fill="#6cc9ff" d="M 534.355469 340.273438 L 645.25 422.074219 C 641.117188 426.457031 347.320312 422.160156 342.445312 423.632812 L 356.226562 464.132812 L 767.085938 463.261719 L 768 461.578125 L 547.238281 299.605469 L 534.367188 340.257812 Z M 534.355469 340.273438 " fill-opacity="1" fill-rule="nonzero"/><g clip-path="url(#f69db1cf47)"><path fill="#6cc9ff" d="M 385.234375 592.421875 C 384.644531 594.050781 383.003906 595.550781 382.539062 595.75 L 289.316406 320.15625 C 276.492188 327.855469 265.324219 336.71875 254.253906 346.453125 L 385.222656 725.734375 L 467.710938 479.179688 L 426.03125 479.417969 L 385.222656 592.421875 Z M 385.234375 592.421875 " fill-opacity="1" fill-rule="nonzero"/></g></g></g><g fill="#6cc9ff" fill-opacity="1"><g transform="translate(369.498033, 653.486988)"><g><path d="M 27.15625 -14.25 C 27.15625 -11.457031 26.703125 -9.03125 25.796875 -6.96875 C 24.898438 -4.914062 23.648438 -3.269531 22.046875 -2.03125 L 27.015625 1.859375 L 23.09375 5.328125 L 16.734375 0.21875 C 16.003906 0.34375 15.253906 0.40625 14.484375 0.40625 C 12.003906 0.40625 9.789062 -0.1875 7.84375 -1.375 C 5.90625 -2.5625 4.40625 -4.257812 3.34375 -6.46875 C 2.28125 -8.675781 1.738281 -11.21875 1.71875 -14.09375 L 1.71875 -15.5625 C 1.71875 -18.5 2.25 -21.085938 3.3125 -23.328125 C 4.375 -25.566406 5.867188 -27.28125 7.796875 -28.46875 C 9.734375 -29.664062 11.945312 -30.265625 14.4375 -30.265625 C 16.925781 -30.265625 19.132812 -29.664062 21.0625 -28.46875 C 23 -27.28125 24.5 -25.566406 25.5625 -23.328125 C 26.625 -21.085938 27.15625 -18.507812 27.15625 -15.59375 Z M 20.921875 -15.609375 C 20.921875 -18.734375 20.359375 -21.109375 19.234375 -22.734375 C 18.117188 -24.367188 16.519531 -25.1875 14.4375 -25.1875 C 12.375 -25.1875 10.78125 -24.378906 9.65625 -22.765625 C 8.539062 -21.160156 7.972656 -18.804688 7.953125 -15.703125 L 7.953125 -14.25 C 7.953125 -11.207031 8.515625 -8.84375 9.640625 -7.15625 C 10.765625 -5.476562 12.378906 -4.640625 14.484375 -4.640625 C 16.546875 -4.640625 18.128906 -5.445312 19.234375 -7.0625 C 20.335938 -8.6875 20.898438 -11.050781 20.921875 -14.15625 Z M 20.921875 -15.609375 "/></g></g></g></svg>