<svg xmlns="http://www.w3.org/2000/svg" xmlns:xlink="http://www.w3.org/1999/xlink" width="1024" zoomAndPan="magnify" viewBox="0 0 768 767.999994" height="1024" preserveAspectRatio="xMidYMid meet" version="1.0"><defs><filter x="0%" y="0%" width="100%" height="100%" id="3dea175205"><feColorMatrix values="0 0 0 0 1 0 0 0 0 1 0 0 0 0 1 0 0 0 1 0" color-interpolation-filters="sRGB"/></filter><g/><mask id="b3104f2825"><g filter="url(#3dea175205)"><rect x="-76.8" width="921.6" fill="#000000" y="-76.799999" height="921.599993" fill-opacity="0.8"/></g></mask><clipPath id="454c60f43e"><path d="M 0 0 L 768 0 L 768 725.761719 L 0 725.761719 Z M 0 0 " clip-rule="nonzero"/></clipPath><clipPath id="4df617e4c8"><path d="M 254 320 L 468 320 L 468 725.753906 L 254 725.753906 Z M 254 320 " clip-rule="nonzero"/></clipPath><clipPath id="90ff38c018"><rect x="0" width="768" y="0" height="726"/></clipPath><clipPath id="51ae0ea2c0"><rect x="0" width="768" y="0" height="726"/></clipPath><mask id="6a01ce93a3"><g filter="url(#3dea175205)"><rect x="-76.8" width="921.6" fill="#000000" y="-76.799999" height="921.599993" fill-opacity="0.6"/></g></mask><clipPath id="ff2dc0df1f"><rect x="0" width="30" y="0" height="51"/></clipPath><mask id="8e0c9b0376"><g filter="url(#3dea175205)"><rect x="-76.8" width="921.6" fill="#000000" y="-76.799999" height="921.599993" fill-opacity="0.6"/></g></mask><clipPath id="361e6378d4"><rect x="0" width="25" y="0" height="51"/></clipPath><mask id="0aa8a9aa1f"><g filter="url(#3dea175205)"><rect x="-76.8" width="921.6" fill="#000000" y="-76.799999" height="921.599993" fill-opacity="0.6"/></g></mask><clipPath id="5da8f73a59"><rect x="0" width="25" y="0" height="51"/></clipPath><mask id="15616348fd"><g filter="url(#3dea175205)"><rect x="-76.8" width="921.6" fill="#000000" y="-76.799999" height="921.599993" fill-opacity="0.6"/></g></mask><clipPath id="acfdd62ac3"><rect x="0" width="29" y="0" height="51"/></clipPath><mask id="9e249af41f"><g filter="url(#3dea175205)"><rect x="-76.8" width="921.6" fill="#000000" y="-76.799999" height="921.599993" fill-opacity="0.6"/></g></mask><clipPath id="ab7463ab59"><rect x="0" width="29" y="0" height="51"/></clipPath></defs><g mask="url(#b3104f2825)"><g transform="matrix(1, 0, 0, 1, 0, -0.000000000000057351)"><g clip-path="url(#51ae0ea2c0)"><g clip-path="url(#454c60f43e)"><g transform="matrix(1, 0, 0, 1, 0, -0.000000000000057351)"><g clip-path="url(#90ff38c018)"><path fill="#6cc9ff" d="M 138.386719 2.015625 L 230.007812 272.84375 C 230.007812 272.84375 262.09375 250.648438 262.09375 250.648438 C 271.140625 246.882812 217.390625 115.238281 222.113281 110.757812 C 224.726562 109.605469 469.804688 297.371094 472.304688 290.136719 C 475.382812 280.78125 484.273438 262.378906 484.316406 252.980469 C 478.992188 250.816406 144.679688 1.550781 138.371094 2.015625 Z M 138.386719 2.015625 " fill-opacity="1" fill-rule="nonzero"/><path fill="#6cc9ff" d="M 399.269531 169.324219 L 432.71875 194.960938 L 548.164062 110.113281 L 550.046875 110.746094 L 450.683594 408.828125 L 453.226562 407.746094 L 492.210938 407.703125 L 630.652344 0.0742188 Z M 399.269531 169.324219 " fill-opacity="1" fill-rule="nonzero"/><path fill="#6cc9ff" d="M 124.914062 421.289062 L 367.226562 241.882812 C 368.335938 241.066406 369.445312 237.484375 368.238281 236.628906 L 340.210938 216.695312 C 229.949219 286.933594 113.058594 382.699219 0 461.886719 C 57.652344 463.09375 217.660156 464.132812 277.445312 464.5 L 264.394531 423.632812 L 125.082031 423.59375 L 124.898438 421.300781 Z M 124.914062 421.289062 " fill-opacity="1" fill-rule="nonzero"/><path fill="#6cc9ff" d="M 534.355469 340.273438 L 645.25 422.074219 C 641.117188 426.457031 347.320312 422.160156 342.445312 423.632812 L 356.226562 464.132812 L 767.085938 463.261719 L 768 461.578125 L 547.238281 299.605469 L 534.367188 340.257812 Z M 534.355469 340.273438 " fill-opacity="1" fill-rule="nonzero"/><g clip-path="url(#4df617e4c8)"><path fill="#6cc9ff" d="M 385.234375 592.421875 C 384.644531 594.050781 383.003906 595.550781 382.539062 595.75 L 289.316406 320.15625 C 276.492188 327.855469 265.324219 336.71875 254.253906 346.453125 L 385.222656 725.734375 L 467.710938 479.179688 L 426.03125 479.417969 L 385.222656 592.421875 Z M 385.234375 592.421875 " fill-opacity="1" fill-rule="nonzero"/></g></g></g></g></g></g></g><g mask="url(#6a01ce93a3)"><g transform="matrix(1, 0, 0, 1, 369, 617)"><g clip-path="url(#ff2dc0df1f)"><g fill="#ffffff" fill-opacity="1"><g transform="translate(0.498032, 39.915495)"><g><path d="M 27.15625 -14.25 C 27.15625 -11.457031 26.703125 -9.03125 25.796875 -6.96875 C 24.898438 -4.914062 23.648438 -3.269531 22.046875 -2.03125 L 27.015625 1.859375 L 23.09375 5.328125 L 16.734375 0.21875 C 16.003906 0.34375 15.253906 0.40625 14.484375 0.40625 C 12.003906 0.40625 9.789062 -0.1875 7.84375 -1.375 C 5.90625 -2.5625 4.40625 -4.257812 3.34375 -6.46875 C 2.28125 -8.675781 1.738281 -11.21875 1.71875 -14.09375 L 1.71875 -15.5625 C 1.71875 -18.5 2.25 -21.085938 3.3125 -23.328125 C 4.375 -25.566406 5.867188 -27.28125 7.796875 -28.46875 C 9.734375 -29.664062 11.945312 -30.265625 14.4375 -30.265625 C 16.925781 -30.265625 19.132812 -29.664062 21.0625 -28.46875 C 23 -27.28125 24.5 -25.566406 25.5625 -23.328125 C 26.625 -21.085938 27.15625 -18.507812 27.15625 -15.59375 Z M 20.921875 -15.609375 C 20.921875 -18.734375 20.359375 -21.109375 19.234375 -22.734375 C 18.117188 -24.367188 16.519531 -25.1875 14.4375 -25.1875 C 12.375 -25.1875 10.78125 -24.378906 9.65625 -22.765625 C 8.539062 -21.160156 7.972656 -18.804688 7.953125 -15.703125 L 7.953125 -14.25 C 7.953125 -11.207031 8.515625 -8.84375 9.640625 -7.15625 C 10.765625 -5.476562 12.378906 -4.640625 14.484375 -4.640625 C 16.546875 -4.640625 18.128906 -5.445312 19.234375 -7.0625 C 20.335938 -8.6875 20.898438 -11.050781 20.921875 -14.15625 Z M 20.921875 -15.609375 "/></g></g></g></g></g></g><g mask="url(#8e0c9b0376)"><g transform="matrix(1, 0, 0, 1, 180, 51)"><g clip-path="url(#361e6378d4)"><g fill="#ffffff" fill-opacity="1"><g transform="translate(0.187494, 40.050015)"><g><path d="M 20.625 -12.9375 L 8.8125 -12.9375 L 8.8125 -4.9375 L 22.6875 -4.9375 L 22.6875 0 L 2.671875 0 L 2.671875 -29.859375 L 22.640625 -29.859375 L 22.640625 -24.875 L 8.8125 -24.875 L 8.8125 -17.765625 L 20.625 -17.765625 Z M 20.625 -12.9375 "/></g></g></g></g></g></g><g mask="url(#0aa8a9aa1f)"><g transform="matrix(1, 0, 0, 1, 667, 408)"><g clip-path="url(#5da8f73a59)"><g fill="#ffffff" fill-opacity="1"><g transform="translate(0.57497, 40.192908)"><g><path d="M 20.625 -12.9375 L 8.8125 -12.9375 L 8.8125 -4.9375 L 22.6875 -4.9375 L 22.6875 0 L 2.671875 0 L 2.671875 -29.859375 L 22.640625 -29.859375 L 22.640625 -24.875 L 8.8125 -24.875 L 8.8125 -17.765625 L 20.625 -17.765625 Z M 20.625 -12.9375 "/></g></g></g></g></g></g><g mask="url(#15616348fd)"><g transform="matrix(1, 0, 0, 1, 76, 408)"><g clip-path="url(#acfdd62ac3)"><g fill="#ffffff" fill-opacity="1"><g transform="translate(0.799999, 40.192908)"><g><path d="M 8.8125 -10.515625 L 8.8125 0 L 2.671875 0 L 2.671875 -29.859375 L 14.3125 -29.859375 C 16.550781 -29.859375 18.519531 -29.445312 20.21875 -28.625 C 21.925781 -27.8125 23.238281 -26.644531 24.15625 -25.125 C 25.070312 -23.613281 25.53125 -21.894531 25.53125 -19.96875 C 25.53125 -17.050781 24.53125 -14.742188 22.53125 -13.046875 C 20.53125 -11.359375 17.757812 -10.515625 14.21875 -10.515625 Z M 8.8125 -15.5 L 14.3125 -15.5 C 15.9375 -15.5 17.175781 -15.878906 18.03125 -16.640625 C 18.882812 -17.410156 19.3125 -18.507812 19.3125 -19.9375 C 19.3125 -21.394531 18.878906 -22.570312 18.015625 -23.46875 C 17.160156 -24.375 15.972656 -24.84375 14.453125 -24.875 L 8.8125 -24.875 Z M 8.8125 -15.5 "/></g></g></g></g></g></g><g mask="url(#9e249af41f)"><g transform="matrix(1, 0, 0, 1, 564, 51)"><g clip-path="url(#ab7463ab59)"><g fill="#ffffff" fill-opacity="1"><g transform="translate(0.167377, 40.050015)"><g><path d="M 8.8125 -10.515625 L 8.8125 0 L 2.671875 0 L 2.671875 -29.859375 L 14.3125 -29.859375 C 16.550781 -29.859375 18.519531 -29.445312 20.21875 -28.625 C 21.925781 -27.8125 23.238281 -26.644531 24.15625 -25.125 C 25.070312 -23.613281 25.53125 -21.894531 25.53125 -19.96875 C 25.53125 -17.050781 24.53125 -14.742188 22.53125 -13.046875 C 20.53125 -11.359375 17.757812 -10.515625 14.21875 -10.515625 Z M 8.8125 -15.5 L 14.3125 -15.5 C 15.9375 -15.5 17.175781 -15.878906 18.03125 -16.640625 C 18.882812 -17.410156 19.3125 -18.507812 19.3125 -19.9375 C 19.3125 -21.394531 18.878906 -22.570312 18.015625 -23.46875 C 17.160156 -24.375 15.972656 -24.84375 14.453125 -24.875 L 8.8125 -24.875 Z M 8.8125 -15.5 "/></g></g></g></g></g></g></svg>